<?xml version="1.0" encoding="UTF-8"?>
<svg version="1.1" xmlns="http://www.w3.org/2000/svg" width="1024" height="1024">
<path d="M0 0 C337.92 0 675.84 0 1024 0 C1024 337.92 1024 675.84 1024 1024 C686.08 1024 348.16 1024 0 1024 C0 686.08 0 348.16 0 0 Z " fill="#F5F4F1" transform="translate(0,0)"/>
<path d="M0 0 C1.11006409 -0.0033284 2.22012817 -0.0066568 3.36383057 -0.01008606 C5.70690501 -0.01512491 8.04998655 -0.01749533 10.39306641 -0.01733398 C13.90149461 -0.01949938 17.40959688 -0.03762974 20.91796875 -0.05664062 C40.80462508 -0.10649463 60.29437628 1.27763603 79.88183594 4.75585938 C81.40991286 5.02714606 82.93921127 5.29165408 84.46972656 5.54882812 C160.49362842 18.42094559 236.49790107 62.07180477 284.203125 123.16796875 C285.13035952 124.30798911 286.06020841 125.44588635 286.9921875 126.58203125 C300.01828905 142.51536442 311.03961861 159.27787987 321.203125 177.16796875 C321.8233252 178.24135498 321.8233252 178.24135498 322.45605469 179.33642578 C361.64243931 247.46995641 371.86291502 334.22068979 355.74023438 410.61425781 C355.19894949 413.18782141 354.69300766 415.76685564 354.1875 418.34765625 C349.4119323 441.7773794 341.16451589 464.47467864 331.203125 486.16796875 C330.51690508 487.69139634 329.83070676 489.21483366 329.14453125 490.73828125 C324.99111067 499.85485814 320.38585525 508.58803636 315.203125 517.16796875 C314.82961914 517.78994141 314.45611328 518.41191406 314.07128906 519.05273438 C301.16809042 540.43272213 286.24666626 559.93706903 269.203125 578.16796875 C268.25163568 579.21930369 267.30245264 580.27273001 266.35546875 581.328125 C261.8826488 586.30354342 257.40257573 591.11495768 252.26171875 595.41796875 C249.85276041 597.4658119 247.57125067 599.62949444 245.265625 601.79296875 C237.97222874 608.43247432 230.12129115 614.29977311 222.203125 620.16796875 C221.54103027 620.66554688 220.87893555 621.163125 220.19677734 621.67578125 C180.80149047 651.18033652 134.10860646 669.92442665 86.203125 680.16796875 C85.36587891 680.34956543 84.52863281 680.53116211 83.66601562 680.71826172 C-2.08639007 698.92664148 -95.25600063 679.90169635 -168.86328125 632.81103516 C-182.53506551 623.85996248 -195.58054794 614.02222732 -207.796875 603.16796875 C-208.87932495 602.21470703 -208.87932495 602.21470703 -209.98364258 601.2421875 C-216.14066881 595.77090366 -222.06165132 590.08946114 -227.88354492 584.26660156 C-229.35643472 582.79590465 -230.83717765 581.33343341 -232.31835938 579.87109375 C-238.58620675 573.64066636 -244.33609972 567.1237574 -249.796875 560.16796875 C-250.36559326 559.45318359 -250.93431152 558.73839844 -251.52026367 558.00195312 C-263.93668328 542.30510815 -274.81038201 525.79944437 -284.58007812 508.33886719 C-285.6657556 506.40190007 -286.76847729 504.47587192 -287.875 502.55078125 C-299.17702457 482.28983476 -306.96770905 460.27018835 -313.796875 438.16796875 C-314.02455566 437.43610352 -314.25223633 436.70423828 -314.48681641 435.95019531 C-315.77488181 431.72898686 -316.8441649 427.47509537 -317.796875 423.16796875 C-317.98701172 422.32202148 -318.17714844 421.47607422 -318.37304688 420.60449219 C-338.02575107 331.24897263 -324.94154342 236.09715152 -275.796875 158.16796875 C-268.07672454 146.28665043 -259.60144353 135.05012664 -250.48828125 124.20800781 C-249.24479193 122.70821035 -248.02099932 121.19202689 -246.80859375 119.66699219 C-241.5298739 113.06152266 -235.89261974 106.95123775 -229.89550781 101.00585938 C-228.42274977 99.54383714 -226.96102455 98.07139387 -225.5 96.59765625 C-219.26362968 90.35267621 -212.69923452 84.67169973 -205.796875 79.16796875 C-203.9817947 77.6084669 -202.16871174 76.04663063 -200.359375 74.48046875 C-146.49518283 29.69762687 -70.30930429 0.07532799 0 0 Z " fill="#363533" transform="translate(494.796875,169.83203125)"/>
<path d="M0 0 C111.39037089 0 111.39037089 0 124.3125 4.6875 C125.05902832 4.95022705 125.80555664 5.2129541 126.57470703 5.48364258 C146.01655044 12.59778985 161.12745761 27.06142828 170.26464844 45.5534668 C179.35998011 65.2760478 179.373648 88.03087577 172.15429688 108.38427734 C168.4843582 117.61951049 163.80547824 125.69982098 157 133 C156.37480469 133.70382812 155.74960937 134.40765625 155.10546875 135.1328125 C141.16385659 150.06822594 120.91352535 156.57035518 101 158 C96.59036866 158.12597247 92.18456908 158.11714466 87.7734375 158.09765625 C86.68264893 158.09664917 85.59186035 158.09564209 84.46801758 158.09460449 C80.43700085 158.08941675 76.40599924 158.07545588 72.375 158.0625 C63.34125 158.041875 54.3075 158.02125 45 158 C45 189.02 45 220.04 45 252 C30.15 252 15.3 252 0 252 C0 168.84 0 85.68 0 0 Z " fill="#F1F0EA" transform="translate(328,383)"/>
<path d="M0 0 C53.46 0 106.92 0 162 0 C162 7.26 162 14.52 162 22 C162.0721875 24.88363281 162.144375 27.76726562 162.21875 30.73828125 C161.47126906 41.40124835 155.60061754 48.74657177 149.5 57.1875 C148.31086831 58.89085635 147.12580495 60.59705922 145.94458008 62.3059082 C143.50742735 65.82697861 141.05528704 69.33681344 138.59228516 72.83984375 C133.63849638 79.91729952 128.91350225 87.1413725 124.19534302 94.3770752 C121.65264541 98.27317814 119.09479751 102.1593175 116.5390625 106.046875 C115.48077299 107.65818915 114.42250519 109.26951756 113.36425781 110.88085938 C107.74134288 119.4393004 102.10654834 127.98992271 96.47158813 136.54043579 C94.62024681 139.34986852 92.76945807 142.15966468 90.91870117 144.96948242 C85.51151709 153.17598377 80.09250281 161.37393986 74.63354492 169.5460968 C70.20210613 176.18528843 65.81722181 182.85494357 61.43823242 189.52880859 C60.04001358 191.65926236 58.64014655 193.78862738 57.24023438 195.91796875 C56.33844253 197.29160159 55.43674614 198.6652971 54.53515625 200.0390625 C54.12266129 200.66616119 53.71016632 201.29325989 53.28517151 201.93936157 C51.11172548 205.25540359 49.0414695 208.59755083 47 212 C86.93 212.33 126.86 212.66 168 213 C168 225.87 168 238.74 168 252 C109.92 252 51.84 252 -8 252 C-8 244.74 -8 237.48 -8 230 C-8.061875 227.421875 -8.12375 224.84375 -8.1875 222.1875 C-7.47552023 213.37434504 -2.68694989 207.36526279 2.32177734 200.39404297 C5.37745945 196.0350062 8.16791825 191.50607905 11 187 C12.195332 185.11637298 13.39193244 183.23355024 14.58984375 181.3515625 C15.16718262 180.44438477 15.74452148 179.53720703 16.33935547 178.60253906 C20.05421983 172.7806552 23.81124339 166.98617371 27.57421875 161.1953125 C29.12434118 158.80854865 30.67160904 156.41994745 32.21875 154.03125 C40.50071091 141.25336746 48.85570808 128.5361074 57.5 116 C66.11956516 103.49197673 74.42469033 90.81154424 82.59301758 78.00366211 C87.80300094 69.84386819 93.07178867 61.72442672 98.375 53.625 C98.93092331 52.77583511 98.93092331 52.77583511 99.49807739 51.90951538 C105.29546335 43.05680498 105.29546335 43.05680498 108 39 C72.36 38.67 36.72 38.34 0 38 C0 25.46 0 12.92 0 0 Z " fill="#EFEDE8" transform="translate(534,383)"/>
<path d="M0 0 C62.61522199 0 62.61522199 0 76 13 C83.53712245 21.17938352 84.49110856 30.71035951 84.375 41.4375 C84.38660156 42.50548828 84.39820313 43.57347656 84.41015625 44.67382812 C84.36686156 56.48606206 81.50024553 66.00093466 73.37109375 74.75390625 C54.8056028 91.94098488 21.32809139 86 0 86 C0 57.62 0 29.24 0 0 Z " fill="#353533" transform="translate(373,419)"/>
<path d="M0 0 C30.03 0 60.06 0 91 0 C90.67 0.66 90.34 1.32 90 2 C60.63 1.67 31.26 1.34 1 1 C1.33 9.58 1.66 18.16 2 27 C2.08101227 34.80959951 2.12798183 42.61319305 2.11352539 50.42236328 C2.11324217 52.62321471 2.11340387 54.82406623 2.1139679 57.0249176 C2.11425062 62.90543038 2.10844016 68.78592205 2.10139394 74.66643 C2.09507167 80.84694463 2.09454967 87.02745993 2.09336853 93.20797729 C2.09028105 104.86959403 2.08210308 116.5312012 2.07201904 128.19281375 C2.06077691 141.48699609 2.0553272 154.78117749 2.05032361 168.0753634 C2.03991782 195.38358209 2.02160512 222.69178771 2 250 C15.86 250 29.72 250 44 250 C44 219.64 44 189.28 44 158 C44.33 158 44.66 158 45 158 C45 189.02 45 220.04 45 252 C30.15 252 15.3 252 0 252 C0 168.84 0 85.68 0 0 Z " fill="#F9F9F7" transform="translate(328,383)"/>
<path d="M0 0 C0.495 0.99 0.495 0.99 1 2 C41.59 2 82.18 2 124 2 C124 14.54 124 27.08 124 40 C65.92 40 7.84 40 -52 40 C-52 35.71 -52 31.42 -52 27 C-51.34 27 -50.68 27 -50 27 C-50.33 30.63 -50.66 34.26 -51 38 C6.09 38 63.18 38 122 38 C122 26.45 122 14.9 122 3 C81.74 3 41.48 3 0 3 C0 2.01 0 1.02 0 0 Z " fill="#F9F9F5" transform="translate(578,595)"/>
<path d="M0 0 C0.99 0.33 1.98 0.66 3 1 C3 8.26 3 15.52 3 23 C-0.375 18.5 -0.375 18.5 -0.29296875 14.453125 C-0.28330078 13.60878906 -0.27363281 12.76445312 -0.26367188 11.89453125 C-0.23853516 11.02183594 -0.21339844 10.14914062 -0.1875 9.25 C-0.17396484 8.36183594 -0.16042969 7.47367187 -0.14648438 6.55859375 C-0.11121309 4.37177422 -0.06192752 2.18620034 0 0 Z " fill="#3E3D3A" transform="translate(854,488)"/>
<path d="M0 0 C0.99 0 1.98 0 3 0 C3.08112454 2.58396679 3.14054748 5.16537568 3.1875 7.75 C3.21263672 8.47960937 3.23777344 9.20921875 3.26367188 9.9609375 C3.32948616 14.78731876 3.03849871 15.94866839 0 20 C0 13.4 0 6.8 0 0 Z " fill="#E0DFDA" transform="translate(502,453)"/>
<path d="M0 0 C0.33 0 0.66 0 1 0 C1 5.61 1 11.22 1 17 C0.01 16.67 -0.98 16.34 -2 16 C-2 13.03 -2 10.06 -2 7 C-1.67 7 -1.34 7 -1 7 C-0.67 4.69 -0.34 2.38 0 0 Z " fill="#E9E7E1" transform="translate(528,606)"/>
<path d="M0 0 C1.98 0 3.96 0 6 0 C6 0.33 6 0.66 6 1 C8.64 1.33 11.28 1.66 14 2 C14 2.33 14 2.66 14 3 C9.05 3 4.1 3 -1 3 C-0.67 2.01 -0.34 1.02 0 0 Z " fill="#ECEAE8" transform="translate(490,856)"/>
<path d="M0 0 C-0.33 0.66 -0.66 1.32 -1 2 C-3.06640625 2.4140625 -3.06640625 2.4140625 -5.5625 2.625 C-6.38878906 2.69976563 -7.21507812 2.77453125 -8.06640625 2.8515625 C-9.02353516 2.92503906 -9.02353516 2.92503906 -10 3 C-10 2.34 -10 1.68 -10 1 C-3.71428571 -1.42857143 -3.71428571 -1.42857143 0 0 Z " fill="#EAE9E5" transform="translate(444,537)"/>
<path d="M0 0 C0 0.66 0 1.32 0 2 C-3.9813783 3.3271261 -7.85045227 3.06915913 -12 3 C-8.48214012 -0.51785988 -4.80656342 -0.10924008 0 0 Z " fill="#222220" transform="translate(439,178)"/>
<path d="M0 0 C0.33 0 0.66 0 1 0 C1.05422947 1.4370809 1.09289723 2.87475462 1.125 4.3125 C1.14820313 5.11300781 1.17140625 5.91351563 1.1953125 6.73828125 C1 9 1 9 -1 12 C-2.50934217 8.98131566 -2.17510672 6.32702771 -2 3 C-1.34 2.01 -0.68 1.02 0 0 Z " fill="#3F3F3C" transform="translate(171,473)"/>
<path d="M0 0 C-1 1.5 -1 1.5 -3 3 C-5.71846235 3.27345479 -8.25677199 3.13491285 -11 3 C-3.71428571 -1.85714286 -3.71428571 -1.85714286 0 0 Z " fill="#E8E8E7" transform="translate(630,837)"/>
<path d="M0 0 C0.33 0.66 0.66 1.32 1 2 C0.00390625 3.9453125 0.00390625 3.9453125 -1.4375 6.125 C-1.91058594 6.84945313 -2.38367188 7.57390625 -2.87109375 8.3203125 C-3.24363281 8.87460937 -3.61617187 9.42890625 -4 10 C-4.66 9.67 -5.32 9.34 -6 9 C-4.02 6.03 -2.04 3.06 0 0 Z " fill="#1D1D1B" transform="translate(680,443)"/>
<path d="M0 0 C0.99 0 1.98 0 3 0 C3.66 2.31 4.32 4.62 5 7 C4.01 7 3.02 7 2 7 C2 5.35 2 3.7 2 2 C1.34 2 0.68 2 0 2 C0 1.34 0 0.68 0 0 Z " fill="#E7E7E4" transform="translate(496,430)"/>
</svg>
